<svg xmlns="http://www.w3.org/2000/svg" viewBox="0 0 104 64">
  <path fill="#2E77BC" d="M104 64H0V0h104v64zM52.87 29.15v-3.24h-7.69v3.24h7.69zm35.366-3.24h-6.63l-4.33 4.65-4.03-4.65h-20.97v14.78h20.97l4.03-4.65 4.33 4.65h6.63l-6.63-7.39 6.63-7.39zm-17.362 8.89h-12.87v-2.91h11.47v-2.91h-11.47v-2.91h13.17l3.73 4.365-4.03 4.395zm-25.076-5.65v-3.24h-7.69v3.24h7.69zm17.362 5.65h-12.87v-2.91h11.47v-2.91h-11.47v-2.91h13.17l3.73 4.365-4.03 4.395zM15.832 25.91H8.012L0 40.69h6.932l1.5-3.24h8.37l1.5 3.24h7.23l-8.01-14.78h-1.69zm-5.73 8.59l2.43-5.35 2.43 5.35h-4.86z"/>
</svg> 