<svg xmlns="http://www.w3.org/2000/svg" viewBox="0 0 1000 324">
  <path fill="#1434CB" d="M651.19,0.03h-99.14c-18.86,0-34.62,5.48-43.41,25.23L391.18,320.11h109.42l15.21-42.68h93.75l8.82,42.68 h96.42L651.19,0.03z M538.87,214.61l38.63-106.49l21.84,106.49H538.87z"/>
  <path fill="#1434CB" d="M279.42,0.03L173.8,217.89l-11.27-57.12c-19.72-63.09-81.07-98.89-151.72-101.74l97.79,261.08h109.42 L393.39,0.03H279.42z"/>
  <path fill="#F79410" d="M127.72,0.03H0.5l-0.5,3.06c98.73,23.83,164.13,81.6,191.21,150.98L163.86,25.26 C160.09,7.34,145.72,0.03,127.72,0.03z"/>
  <path fill="#1434CB" d="M867.58,0.03h-89.78c-19.72,0-33.75,5.48-42.19,25.23l-117.24,294.85h109.42l14.85-41.51h91.37 l8.46,41.51h96.42L867.58,0.03z M757.06,215.78l37.77-106.49l21.84,106.49H757.06z"/>
</svg> 